<svg width="50" height="50" viewBox="0 0 50 50" fill="none" xmlns="http://www.w3.org/2000/svg">
<circle cx="25" cy="25" r="24.5" stroke="white" stroke-opacity="0.24"/>
<path d="M25.438 18.0405C27.78 18.0405 28.0574 18.0493 28.9825 18.0915C29.5388 18.0983 30.0898 18.2004 30.6115 18.3935C30.9899 18.5394 31.3335 18.7629 31.6203 19.0496C31.907 19.3364 32.1305 19.68 32.2765 20.0584C32.4695 20.5801 32.5716 21.1311 32.5784 21.6874C32.6202 22.6125 32.6294 22.8899 32.6294 25.2319C32.6294 27.5739 32.6206 27.8512 32.5784 28.7764C32.5716 29.3327 32.4695 29.8837 32.2765 30.4054C32.1305 30.7838 31.907 31.1274 31.6203 31.4141C31.3335 31.7009 30.9899 31.9244 30.6115 32.0703C30.0898 32.2634 29.5388 32.3655 28.9825 32.3723C28.0578 32.4141 27.7804 32.4233 25.438 32.4233C23.0956 32.4233 22.8183 32.4145 21.8935 32.3723C21.3372 32.3655 20.7862 32.2634 20.2645 32.0703C19.8861 31.9244 19.5425 31.7009 19.2558 31.4141C18.969 31.1274 18.7455 30.7838 18.5996 30.4054C18.4065 29.8837 18.3044 29.3327 18.2976 28.7764C18.2558 27.8512 18.2466 27.5739 18.2466 25.2319C18.2466 22.8899 18.2554 22.6125 18.2976 21.6874C18.3044 21.1311 18.4065 20.5801 18.5996 20.0584C18.7455 19.68 18.969 19.3364 19.2558 19.0496C19.5425 18.7629 19.8861 18.5394 20.2645 18.3935C20.7862 18.2004 21.3372 18.0983 21.8935 18.0915C22.8187 18.0497 23.096 18.0405 25.438 18.0405ZM25.438 16.46C23.0572 16.46 22.7573 16.47 21.8216 16.5126C21.0936 16.5271 20.3733 16.6649 19.6914 16.9203C19.1064 17.1407 18.5766 17.486 18.1389 17.9323C17.6922 18.3702 17.3465 18.9004 17.126 19.4857C16.8706 20.1676 16.7328 20.8879 16.7183 21.6159C16.6765 22.5507 16.6665 22.8506 16.6665 25.2315C16.6665 27.6123 16.6765 27.9122 16.7191 28.8478C16.7336 29.5759 16.8715 30.2961 17.1268 30.9781C17.3471 31.5633 17.6925 32.0935 18.1389 32.5315C18.5768 32.9778 19.107 33.3232 19.6923 33.5435C20.3742 33.7989 21.0945 33.9367 21.8225 33.9512C22.7581 33.993 23.0568 34.0038 25.4389 34.0038C27.8209 34.0038 28.1196 33.9938 29.0552 33.9512C29.7832 33.9367 30.5035 33.7989 31.1854 33.5435C31.7679 33.3177 32.2969 32.9729 32.7385 32.531C33.1801 32.0891 33.5247 31.5599 33.7501 30.9772C34.0054 30.2953 34.1433 29.575 34.1577 28.847C34.1995 27.9122 34.2095 27.6123 34.2095 25.2315C34.2095 22.8506 34.1995 22.5507 34.1569 21.6151C34.1424 20.8871 34.0046 20.1668 33.7492 19.4849C33.5289 18.8996 33.1835 18.3695 32.7372 17.9315C32.2992 17.4851 31.7691 17.1397 31.1838 16.9194C30.5019 16.6641 29.7816 16.5262 29.0536 16.5118C28.1188 16.47 27.8189 16.46 25.438 16.46Z" fill="white"/>
<path d="M25.4399 20.728C24.549 20.728 23.6782 20.9922 22.9374 21.4872C22.1967 21.9821 21.6194 22.6856 21.2784 23.5087C20.9375 24.3317 20.8483 25.2374 21.0221 26.1112C21.1959 26.9849 21.6249 27.7875 22.2549 28.4175C22.8848 29.0474 23.6874 29.4764 24.5612 29.6502C25.4349 29.824 26.3406 29.7348 27.1637 29.3939C27.9868 29.053 28.6902 28.4757 29.1852 27.7349C29.6801 26.9942 29.9443 26.1233 29.9443 25.2324C29.9443 24.0378 29.4697 22.8921 28.625 22.0473C27.7803 21.2026 26.6346 20.728 25.4399 20.728ZM25.4399 28.1562C24.8616 28.1562 24.2964 27.9848 23.8155 27.6635C23.3347 27.3422 22.96 26.8856 22.7387 26.3513C22.5174 25.8171 22.4595 25.2292 22.5723 24.662C22.6851 24.0948 22.9636 23.5738 23.3725 23.1649C23.7814 22.756 24.3023 22.4776 24.8695 22.3648C25.4367 22.2519 26.0246 22.3098 26.5588 22.5311C27.0931 22.7524 27.5497 23.1272 27.871 23.608C28.1923 24.0888 28.3638 24.6541 28.3638 25.2324C28.3638 26.0079 28.0557 26.7515 27.5074 27.2999C26.9591 27.8482 26.2154 28.1562 25.4399 28.1562Z" fill="white"/>
<path d="M30.1219 21.6057C30.7032 21.6057 31.1745 21.1344 31.1745 20.5531C31.1745 19.9717 30.7032 19.5005 30.1219 19.5005C29.5406 19.5005 29.0693 19.9717 29.0693 20.5531C29.0693 21.1344 29.5406 21.6057 30.1219 21.6057Z" fill="white"/>
</svg>
