<svg width="50" height="50" viewBox="0 0 50 50" fill="none" xmlns="http://www.w3.org/2000/svg">
<circle cx="25" cy="25" r="24.5" stroke="white" stroke-opacity="0.24"/>
<g clip-path="url(#clip0_2126_2592)">
<path d="M18.1967 16.6951C18.1964 17.2549 17.964 17.7918 17.5505 18.1874C17.137 18.5831 16.5764 18.8053 15.992 18.805C15.4076 18.8047 14.8472 18.582 14.4342 18.186C14.0211 17.7899 13.7893 17.2528 13.7896 16.6929C13.7898 16.1331 14.0223 15.5962 14.4357 15.2006C14.8492 14.8049 15.4098 14.5827 15.9942 14.583C16.5786 14.5833 17.139 14.806 17.5521 15.2021C17.9651 15.5981 18.197 16.1352 18.1967 16.6951ZM18.2628 20.3682H13.8557V33.583H18.2628V20.3682ZM25.2261 20.3682H20.841V33.583H25.182V26.6484C25.182 22.7853 30.4375 22.4264 30.4375 26.6484V33.583H34.7896V25.2129C34.7896 18.7005 27.011 18.9433 25.182 22.1414L25.2261 20.3682Z" fill="white"/>
</g>
<defs>
<clipPath id="clip0_2126_2592">
<rect width="18.421" height="18.421" fill="white" transform="translate(15.7896 15.583)"/>
</clipPath>
</defs>
</svg>
