<svg width="21" height="22" viewBox="0 0 21 22" fill="none" xmlns="http://www.w3.org/2000/svg">
<path d="M12.25 7.66669H8.75C6.57825 7.66669 6.125 8.11994 6.125 10.2917V19.9167H14.875V10.2917C14.875 8.11994 14.4218 7.66669 12.25 7.66669Z" stroke="#3D69CB" stroke-width="1.2" stroke-linecap="round" stroke-linejoin="round"/>
<path d="M9.625 11.1667H11.375M9.625 13.7917H11.375M9.625 16.4167H11.375" stroke="#3D69CB" stroke-width="1.2" stroke-linecap="round" stroke-linejoin="round"/>
<path d="M18.375 19.9167V7.82912C18.375 6.75437 18.375 6.21699 18.1136 5.78514C17.8523 5.35329 17.3816 5.11298 16.4403 4.63233L12.6413 2.69263C11.6259 2.17417 11.375 2.35689 11.375 3.49183V7.40725" stroke="#3D69CB" stroke-width="1.2" stroke-linecap="round" stroke-linejoin="round"/>
<path d="M2.625 19.9167V12.0417C2.625 11.3178 2.77609 11.1667 3.5 11.1667H6.125" stroke="#3D69CB" stroke-width="1.2" stroke-linecap="round" stroke-linejoin="round"/>
<path d="M19.25 19.9167H1.75" stroke="#3D69CB" stroke-width="1.2" stroke-linecap="round" stroke-linejoin="round"/>
</svg>
