<svg width="46" height="45" viewBox="0 0 46 45" fill="none" xmlns="http://www.w3.org/2000/svg">
<rect x="0.333496" width="45" height="45" rx="7" fill="#989898" fill-opacity="0.09"/>
<path d="M24.0068 18.1661L23.4523 18.9036C21.584 21.4111 18.775 25.1423 17.4501 26.6814C17.1046 27.084 16.6932 27.4246 16.2336 27.6885H16.2275C15.7704 27.9729 15.2448 28.1272 14.7069 28.135C14.2864 28.1411 13.8687 28.0661 13.4763 27.9143C13.1172 27.7724 12.7942 27.5521 12.5305 27.2694C12.2589 26.9732 12.0496 26.6251 11.9152 26.246C11.6205 25.3794 11.6205 24.4393 11.9152 23.5727C12.0499 23.1936 12.2591 22.8456 12.5305 22.5493C12.7978 22.2655 13.1251 22.0455 13.4884 21.9054C13.8808 21.7532 14.2985 21.678 14.7191 21.6837C15.2627 21.6754 15.7987 21.8123 16.2721 22.0804C16.3279 22.113 16.3826 22.1465 16.4373 22.1821L18.8064 19.3624C18.4354 19.0836 18.2904 19.0256 17.8515 18.8262C16.8783 18.3834 15.7609 18.1623 14.4991 18.163C13.5256 18.1531 12.5581 18.3182 11.6425 18.6503C10.7968 18.9578 10.0213 19.4323 9.36161 20.0459C8.71985 20.6457 8.20988 21.3733 7.86435 22.1821C7.50143 23.046 7.3209 23.976 7.33418 24.9134C7.32229 25.85 7.50384 26.7789 7.86739 27.6417C8.21232 28.4508 8.72237 29.1785 9.36465 29.7779C10.023 30.3914 10.7977 30.8656 11.6425 31.1725C12.5581 31.5049 13.5255 31.6703 14.4991 31.6607C15.7602 31.6607 16.8776 31.4363 17.8515 30.9874C18.8001 30.5591 19.6299 29.9043 20.2682 29.08L20.257 29.0708C21.7654 27.3934 24.6464 23.4293 25.8395 21.8485H36.4278L38.3336 18.1691L24.0068 18.1661Z" fill="#3D69CB"/>
<path d="M25.4726 31.6608L28.5746 27.6061H31.0998L33.2995 23.9268H26.7489L20.8774 31.6608H25.4726Z" fill="#FACF09"/>
<path d="M14.2841 16.6415C15.4671 16.6415 16.4261 15.6792 16.4261 14.4921C16.4261 13.305 15.4671 12.3427 14.2841 12.3427C13.1011 12.3427 12.1421 13.305 12.1421 14.4921C12.1421 15.6792 13.1011 16.6415 14.2841 16.6415Z" fill="#FACF09"/>
</svg>
