<svg width="27" height="27" viewBox="0 0 27 27" fill="none" xmlns="http://www.w3.org/2000/svg">
<path d="M4.08301 7.875H7.33301" stroke="#3D69CB" stroke-width="2" stroke-linecap="round" stroke-linejoin="round"/>
<path d="M4.08301 19.125H10.583" stroke="#3D69CB" stroke-width="2" stroke-linecap="round" stroke-linejoin="round"/>
<path d="M20.333 19.125H23.583" stroke="#3D69CB" stroke-width="2" stroke-linecap="round" stroke-linejoin="round"/>
<path d="M17.083 7.875H23.583" stroke="#3D69CB" stroke-width="2" stroke-linecap="round" stroke-linejoin="round"/>
<path d="M7.33301 7.875C7.33301 6.82664 7.33301 6.30245 7.49793 5.88896C7.71784 5.33765 8.13964 4.89963 8.67052 4.67127C9.0687 4.5 9.57347 4.5 10.583 4.5C11.5925 4.5 12.0973 4.5 12.4955 4.67127C13.0264 4.89963 13.4482 5.33765 13.6681 5.88896C13.833 6.30245 13.833 6.82664 13.833 7.875C13.833 8.92336 13.833 9.44755 13.6681 9.86104C13.4482 10.4123 13.0264 10.8504 12.4955 11.0787C12.0973 11.25 11.5925 11.25 10.583 11.25C9.57347 11.25 9.0687 11.25 8.67052 11.0787C8.13964 10.8504 7.71784 10.4123 7.49793 9.86104C7.33301 9.44755 7.33301 8.92336 7.33301 7.875Z" stroke="#3D69CB" stroke-width="2"/>
<path d="M13.833 19.125C13.833 18.0766 13.833 17.5525 13.9979 17.1389C14.2178 16.5877 14.6397 16.1496 15.1705 15.9212C15.5687 15.75 16.0734 15.75 17.083 15.75C18.0926 15.75 18.5973 15.75 18.9955 15.9212C19.5264 16.1496 19.9482 16.5877 20.1681 17.1389C20.333 17.5525 20.333 18.0766 20.333 19.125C20.333 20.1734 20.333 20.6975 20.1681 21.1111C19.9482 21.6623 19.5264 22.1004 18.9955 22.3288C18.5973 22.5 18.0926 22.5 17.083 22.5C16.0734 22.5 15.5687 22.5 15.1705 22.3288C14.6397 22.1004 14.2178 21.6623 13.9979 21.1111C13.833 20.6975 13.833 20.1734 13.833 19.125Z" stroke="#3D69CB" stroke-width="2"/>
</svg>
