<svg width="26" height="26" viewBox="0 0 26 26" fill="none" xmlns="http://www.w3.org/2000/svg">
<path d="M3.25 19.479V13.7663C3.25 9.83018 3.25 7.86211 4.43988 6.63931C5.62976 5.4165 7.54484 5.4165 11.375 5.4165C15.2051 5.4165 17.1202 5.4165 18.3102 6.63931C19.5 7.86211 19.5 9.83018 19.5 13.7663V19.479C19.5 21.9771 19.5 23.2261 18.7151 23.6732C17.1951 24.5389 14.3439 21.6505 12.9898 20.7808C12.2045 20.2764 11.8119 20.0242 11.375 20.0242C10.9381 20.0242 10.5454 20.2764 9.76016 20.7808C8.40613 21.6505 5.55493 24.5389 4.03492 23.6732C3.25 23.2261 3.25 21.9771 3.25 19.479Z" stroke="#C6C6C6" stroke-width="1.5" stroke-linecap="round" stroke-linejoin="round"/>
<path d="M9.75 2.1665H11.9167C17.0235 2.1665 19.577 2.1665 21.1635 3.75301C22.75 5.33951 22.75 7.89295 22.75 12.9998V19.4998" stroke="#C6C6C6" stroke-width="1.5" stroke-linecap="round" stroke-linejoin="round"/>
</svg>
