<svg width="21" height="22" viewBox="0 0 21 22" fill="none" xmlns="http://www.w3.org/2000/svg">
<path d="M12.6875 8.54169C12.6875 9.7498 11.7081 10.7292 10.5 10.7292C9.29189 10.7292 8.3125 9.7498 8.3125 8.54169C8.3125 7.33357 9.29189 6.35419 10.5 6.35419C11.7081 6.35419 12.6875 7.33357 12.6875 8.54169Z" stroke="#3D69CB" stroke-width="1.2" stroke-linecap="round" stroke-linejoin="round"/>
<path d="M11.6002 15.9736C11.3051 16.2578 10.9106 16.4167 10.5002 16.4167C10.0896 16.4167 9.69518 16.2578 9.40004 15.9736C6.69751 13.3549 3.07579 10.4295 4.842 6.18245C5.79696 3.88609 8.08932 2.41669 10.5002 2.41669C12.911 2.41669 15.2033 3.8861 16.1583 6.18245C17.9223 10.4242 14.3094 13.3639 11.6002 15.9736Z" stroke="#3D69CB" stroke-width="1.2" stroke-linecap="round" stroke-linejoin="round"/>
<path d="M15.75 18.1667C15.75 19.1332 13.3995 19.9167 10.5 19.9167C7.6005 19.9167 5.25 19.1332 5.25 18.1667" stroke="#3D69CB" stroke-width="1.2" stroke-linecap="round" stroke-linejoin="round"/>
</svg>
