<svg width="22" height="23" viewBox="0 0 22 23" fill="none" xmlns="http://www.w3.org/2000/svg">
<path d="M18.3337 20.8334H5.95866C4.69301 20.8334 3.66699 19.8074 3.66699 18.5418M3.66699 18.5418V10.4601C3.66699 7.7242 3.66699 6.35625 4.36056 5.39536C4.59023 5.07715 4.8695 4.79789 5.1877 4.56821C6.1486 3.87464 7.51655 3.87464 10.2524 3.87464C11.1475 3.87464 12.2375 3.92181 13.1415 3.93403C13.9657 3.94518 14.3779 3.95076 15.1457 3.81509C15.9134 3.67941 15.9954 3.64822 16.1595 3.58583C16.8653 3.31745 17.5336 2.90004 18.3337 2.5V11.2084C18.3337 12.9169 18.3337 13.7712 18.0545 14.445C17.6824 15.3434 16.9686 16.0572 16.0701 16.4294C15.3963 16.7084 14.5421 16.7084 12.8337 16.7084H5.50033C4.4878 16.7084 3.66699 17.5293 3.66699 18.5418Z" stroke="#3D69CB" stroke-width="1.5" stroke-linecap="round" stroke-linejoin="round"/>
<path d="M16.5 16.25V20.8333" stroke="#3D69CB" stroke-width="1.5" stroke-linejoin="round"/>
<path d="M7.33301 4.33337V8.00004" stroke="#3D69CB" stroke-width="1.5" stroke-linecap="round" stroke-linejoin="round"/>
</svg>
