<svg width="59" height="59" viewBox="0 0 59 59" fill="none" xmlns="http://www.w3.org/2000/svg">
<rect width="59" height="59" rx="10" fill="#F3F3F3"/>
<g clip-path="url(#clip0_2181_1568)">
<path fill-rule="evenodd" clip-rule="evenodd" d="M35.6768 17.02C35.7738 16.8642 35.9149 16.7406 36.0821 16.6649C36.2494 16.5892 36.4354 16.5648 36.6165 16.5947L41.3912 17.3914C41.634 17.4319 41.8507 17.5671 41.9939 17.7674C42.137 17.9676 42.1948 18.2165 42.1545 18.4593L41.3596 23.2359C41.3293 23.4169 41.246 23.5849 41.1202 23.7187C40.9944 23.8524 40.8318 23.9458 40.6529 23.9872C40.474 24.0285 40.2869 24.0159 40.1152 23.9509C39.9435 23.8859 39.7949 23.7715 39.6882 23.6221L38.3993 21.8207L31.7619 26.0624C31.4789 26.2436 31.1399 26.3162 30.8075 26.2671C30.475 26.2179 30.1716 26.0503 29.9531 25.795L26.2518 21.4679L19.3302 25.0243C19.0017 25.1932 18.6195 25.2247 18.2677 25.1119C17.916 24.9991 17.6234 24.7511 17.4545 24.4226C17.2855 24.094 17.254 23.7119 17.3669 23.3601C17.4797 23.0083 17.7277 22.7158 18.0562 22.5469L25.9583 18.4853C26.2373 18.342 26.5565 18.297 26.8642 18.3577C27.172 18.4183 27.4502 18.5811 27.6539 18.8196L31.2828 23.0631L36.7799 19.5494L35.7083 18.0507C35.6018 17.9013 35.5419 17.7236 35.5363 17.5401C35.5307 17.3567 35.5796 17.1757 35.6768 17.02ZM23.5199 26.1386L18.1305 29.2214C17.9176 29.343 17.7405 29.5187 17.6173 29.7307C17.494 29.9426 17.4289 30.1834 17.4285 30.4286V41.1071C17.4285 41.876 18.0525 42.5 18.8213 42.5H23.5199V26.1386ZM25.8413 42.5H32.6533V29.8491L29.5909 31.3794L26.5303 26.0234C26.3754 25.7513 26.1334 25.5394 25.8432 25.4217L25.8413 42.5ZM40.1785 42.5H34.9748V28.6884L39.5563 26.3967C39.7687 26.2907 40.0046 26.2407 40.2417 26.2515C40.4788 26.2623 40.7092 26.3334 40.9111 26.4583C41.113 26.5831 41.2796 26.7575 41.3951 26.9648C41.5107 27.1721 41.5713 27.4055 41.5713 27.6429V41.1071C41.5713 41.4766 41.4246 41.8308 41.1634 42.092C40.9022 42.3533 40.5479 42.5 40.1785 42.5Z" fill="#3D69CB"/>
</g>
<defs>
<clipPath id="clip0_2181_1568">
<rect width="26" height="26" fill="white" transform="translate(16.5 16.5)"/>
</clipPath>
</defs>
</svg>
