<svg width="60" height="59" viewBox="0 0 60 59" fill="none" xmlns="http://www.w3.org/2000/svg">
<rect x="0.5" width="59" height="59" rx="10" fill="#F3F3F3"/>
<path d="M29.9999 16.1666C32.2098 16.1666 34.3652 16.853 36.1682 18.131C37.9711 19.409 39.3326 21.2154 40.0646 23.3006C40.7965 25.3858 40.8626 27.6469 40.2539 29.7713C39.6452 31.8958 38.3917 33.7787 36.6665 35.16V41.3066C36.6665 41.5436 36.6091 41.777 36.4992 41.9869C36.3893 42.1968 36.2301 42.377 36.0354 42.512C35.8407 42.647 35.6161 42.7327 35.381 42.762C35.1458 42.7913 34.9071 42.7631 34.6852 42.68L29.9999 40.9253L25.3145 42.6826C25.0926 42.7658 24.8537 42.794 24.6185 42.7646C24.3832 42.7353 24.1586 42.6494 23.9638 42.5143C23.769 42.3791 23.6099 42.1988 23.5001 41.9887C23.3903 41.7786 23.333 41.545 23.3332 41.308V35.1613C21.6075 33.7802 20.3535 31.8972 19.7445 29.7725C19.1354 27.6478 19.2015 25.3864 19.9335 23.3008C20.6654 21.2153 22.0272 19.4086 23.8305 18.1306C25.6338 16.8526 27.7896 16.1663 29.9999 16.1666ZM29.9999 18.8333C27.8781 18.8333 25.8433 19.6761 24.343 21.1764C22.8427 22.6767 21.9999 24.7116 21.9999 26.8333C21.9999 28.955 22.8427 30.9899 24.343 32.4901C25.8433 33.9904 27.8781 34.8333 29.9999 34.8333C32.1216 34.8333 34.1564 33.9904 35.6567 32.4901C37.157 30.9899 37.9999 28.955 37.9999 26.8333C37.9999 24.7116 37.157 22.6767 35.6567 21.1764C34.1564 19.6761 32.1216 18.8333 29.9999 18.8333ZM29.9999 21.5C31.4144 21.5 32.7709 22.0619 33.7711 23.0621C34.7713 24.0623 35.3332 25.4188 35.3332 26.8333C35.3332 28.2478 34.7713 29.6043 33.7711 30.6045C32.7709 31.6047 31.4144 32.1666 29.9999 32.1666C28.5854 32.1666 27.2288 31.6047 26.2286 30.6045C25.2284 29.6043 24.6665 28.2478 24.6665 26.8333C24.6665 25.4188 25.2284 24.0623 26.2286 23.0621C27.2288 22.0619 28.5854 21.5 29.9999 21.5Z" fill="#3D69CB"/>
</svg>
